<svg width="240" height="151" viewBox="0 0 240 151" fill="none" xmlns="http://www.w3.org/2000/svg">
<path d="M82.9304 9.40853C82.9304 13.1919 88.9945 16.259 84.7747 16.259C80.5549 16.259 77.134 13.1919 77.134 9.40853C77.134 5.62514 80.5549 2.55811 84.7747 2.55811C88.9945 2.55811 82.9304 5.62514 82.9304 9.40853Z" fill="#FE964A"/>
<path d="M142.849 6.10364L143.875 9.25932H147.193L144.508 11.2096L145.534 14.3653L142.849 12.415L140.165 14.3653L141.19 11.2096L138.506 9.25932H141.824L142.849 6.10364Z" fill="#FE964A"/>
<path d="M30.6824 72.8104C30.6824 72.8104 40.4165 67.9622 42.6247 70.5033C43.8379 71.8994 44.754 73.5903 43.6675 74.9641C42.83 76.0231 41.6208 76.1581 40.204 75.9093C37.2037 75.3823 37.2492 71.2159 38.4536 68.6355C40.1165 65.0728 48.9435 67.1757 48.9435 67.1757" stroke="#0BA259" stroke-width="1.82678"/>
<circle cx="207.14" cy="67.9532" r="5.32811" fill="#FFEDEC"/>
<path d="M50.3069 123.831L51.065 117.292L56.35 120.643L56.9524 115.157L61.7731 118.478L63.2744 112.548" stroke="#2F78EE" stroke-width="1.52232"/>
<path d="M174.612 20.5262C174.612 20.5262 173.871 16.124 175.997 15.2466C177.784 14.5094 179.333 17.7692 180.801 16.5874C182.288 15.3903 178.576 13.4938 179.785 12.062C181.057 10.5551 185.143 12.062 185.143 12.062" stroke="#2F78EE" stroke-width="1.82678"/>
<path d="M29.393 13.9284L48.961 23.67L44.0703 30.3394L29.393 13.9284Z" fill="#2F78EE"/>
<circle cx="202.729" cy="86.0849" r="2.28347" fill="#FFEDEC"/>
<path d="M180.784 116.143C183.294 116.396 185.733 112.578 185.451 115.377C185.17 118.176 182.907 120.241 180.397 119.988C177.888 119.735 176.082 117.261 176.363 114.462C176.645 111.663 178.275 115.891 180.784 116.143Z" fill="#2F78EE"/>
<path d="M188.93 35.9839L190.639 41.2434H196.169L191.695 44.494L193.404 49.7534L188.93 46.5029L184.456 49.7534L186.165 44.494L181.691 41.2434H187.221L188.93 35.9839Z" fill="#0BA259"/>
<rect x="74.5359" y="24.0566" width="90.566" height="90.566" rx="45.283" fill="#27A376"/>
<g filter="url(#filter0_d_111_3324)">
<rect x="92.6492" y="42.1698" width="54.3396" height="54.3396" rx="27.1698" fill="white" shape-rendering="crispEdges"/>
<path fill-rule="evenodd" clip-rule="evenodd" d="M129.676 62.8788C130.118 63.3209 130.118 64.0377 129.676 64.4798L118.355 75.8005C117.913 76.2426 117.197 76.2426 116.754 75.8005L111.094 70.1401C110.652 69.698 110.652 68.9812 111.094 68.5391C111.536 68.097 112.253 68.097 112.695 68.5391L117.555 73.399L128.075 62.8788C128.517 62.4367 129.234 62.4367 129.676 62.8788Z" fill="#111827"/>
</g>
<defs>
<filter id="filter0_d_111_3324" x="56.4228" y="24.0566" width="126.792" height="126.792" filterUnits="userSpaceOnUse" color-interpolation-filters="sRGB">
<feFlood flood-opacity="0" result="BackgroundImageFix"/>
<feColorMatrix in="SourceAlpha" type="matrix" values="0 0 0 0 0 0 0 0 0 0 0 0 0 0 0 0 0 0 127 0" result="hardAlpha"/>
<feOffset dy="18.1132"/>
<feGaussianBlur stdDeviation="18.1132"/>
<feComposite in2="hardAlpha" operator="out"/>
<feColorMatrix type="matrix" values="0 0 0 0 0 0 0 0 0 0 0 0 0 0 0 0 0 0 0.3 0"/>
<feBlend mode="normal" in2="BackgroundImageFix" result="effect1_dropShadow_111_3324"/>
<feBlend mode="normal" in="SourceGraphic" in2="effect1_dropShadow_111_3324" result="shape"/>
</filter>
</defs>
</svg>
