<svg width="36" height="36" viewBox="0 0 36 36" fill="none" xmlns="http://www.w3.org/2000/svg">
<path d="M0 18C0 8.05888 8.05888 0 18 0C27.9411 0 36 8.05888 36 18C36 27.9411 27.9411 36 18 36C8.05888 36 0 27.9411 0 18Z" fill="url(#paint0_linear_171_13456)"/>
<path d="M18 28C23.5228 28 28 23.5228 28 18C28 12.4772 23.5228 8 18 8C12.4772 8 8 12.4772 8 18C8 23.5228 12.4772 28 18 28Z" stroke="white" stroke-width="2" stroke-linecap="round" stroke-linejoin="round"/>
<path d="M18 12V18L22 20" stroke="white" stroke-width="2" stroke-linecap="round" stroke-linejoin="round"/>
<defs>
<linearGradient id="paint0_linear_171_13456" x1="5.34375" y1="5.90625" x2="30.0938" y2="30.6562" gradientUnits="userSpaceOnUse">
<stop stop-color="#EAB308"/>
<stop offset="0.763603" stop-color="#EAB308" stop-opacity="0.6"/>
<stop offset="1" stop-color="#EAB308"/>
</linearGradient>
</defs>
</svg>
