<svg width="36" height="36" viewBox="0 0 36 36" fill="none" xmlns="http://www.w3.org/2000/svg">
<rect width="36" height="36" rx="18" fill="url(#paint0_linear_171_13421)"/>
<path d="M21 24.75V23.25C21 22.4544 20.6839 21.6913 20.1213 21.1287C19.5587 20.5661 18.7956 20.25 18 20.25H13.5C12.7044 20.25 11.9413 20.5661 11.3787 21.1287C10.8161 21.6913 10.5 22.4544 10.5 23.25V24.75" stroke="white" stroke-width="1.5" stroke-linecap="round" stroke-linejoin="round"/>
<path d="M15.75 17.25C17.4069 17.25 18.75 15.9069 18.75 14.25C18.75 12.5931 17.4069 11.25 15.75 11.25C14.0931 11.25 12.75 12.5931 12.75 14.25C12.75 15.9069 14.0931 17.25 15.75 17.25Z" stroke="white" stroke-width="1.5" stroke-linecap="round" stroke-linejoin="round"/>
<path d="M25.5 24.75V23.25C25.4995 22.5853 25.2783 21.9396 24.871 21.4143C24.4638 20.8889 23.8936 20.5137 23.25 20.3475" stroke="white" stroke-width="1.5" stroke-linecap="round" stroke-linejoin="round"/>
<path d="M21 11.3475C21.6453 11.5128 22.2173 11.8881 22.6257 12.4143C23.0342 12.9405 23.2559 13.5877 23.2559 14.2538C23.2559 14.9199 23.0342 15.5671 22.6257 16.0933C22.2173 16.6195 21.6453 16.9948 21 17.16" stroke="white" stroke-width="1.5" stroke-linecap="round" stroke-linejoin="round"/>
<defs>
<linearGradient id="paint0_linear_171_13421" x1="6.75" y1="3.375" x2="29.3675" y2="32.5091" gradientUnits="userSpaceOnUse">
<stop offset="0.23" stop-color="#3B82F6"/>
<stop offset="0.441515" stop-color="#3B82F6" stop-opacity="0.879135"/>
<stop offset="0.78" stop-color="#3B82F6" stop-opacity="0.68"/>
<stop offset="1" stop-color="#3B82F6"/>
</linearGradient>
</defs>
</svg>
